<svg xmlns="http://www.w3.org/2000/svg" fill="none" aria-label="Potential-energy-surface contour map: two basins separated by a saddle, with a dashed migration path crossing the saddle" color="#221E17" role="img" viewBox="0 0 1200 900"><g stroke="currentColor" stroke-linecap="round" stroke-linejoin="round" stroke-width="1.15"><path d="M982.7,577.9 L978.0,576.8 L973.4,575.3 L968.7,573.5 L964.0,571.4 L959.5,568.9 L954.9,566.1 L950.3,562.9 L947.3,560.6 L943.4,557.3 L939.9,554.2 L936.4,550.8 L933.6,547.7 L929.8,543.4 L927.2,540.1 L924.9,537.0 L921.9,532.7 L919.2,528.4 L916.7,524.1 L914.5,519.8 L912.4,515.5 L910.6,511.2 L908.7,506.2 L906.8,500.5 L905.6,496.2 L904.2,489.7 L903.4,485.4 L902.6,479.0 L902.2,472.6 L902.2,466.1 L902.6,459.7 L903.4,453.2 L904.1,448.9 L905.7,442.5 L906.9,438.2 L908.7,433.1 L911.0,427.5 L913.0,423.2 L915.3,418.9 L917.9,414.6 L920.2,411.1 L922.5,407.9 L925.8,403.8 L929.5,399.6 L931.8,397.2 L936.2,393.1 L938.7,390.9 L943.4,387.4 L947.6,384.5 L951.2,382.3 L955.2,380.2 L959.9,378.0 L965.6,375.9 L971.1,374.3 L975.7,373.3 L982.7,372.5 L989.6,372.4 L996.5,373.0 L1001.2,374.0 L1007.6,375.9 L1012.7,378.0 L1017.0,380.2 L1020.5,382.3 L1024.3,385.0 L1028.9,388.8 L1031.2,390.9 L1035.3,395.2 L1038.2,398.6 L1040.5,401.7 L1043.4,406.0 L1046.0,410.3 L1048.4,414.6 L1050.5,418.9 L1052.4,423.2 L1054.3,428.2 L1056.3,433.9 L1057.5,438.2 L1059.0,443.7 L1060.1,448.9 L1061.2,455.4 L1061.8,459.7 L1062.5,466.1 L1062.9,472.6 L1063.0,479.0 L1062.9,485.4 L1062.5,491.9 L1061.9,498.3 L1061.3,502.8 L1060.2,509.1 L1059.0,514.7 L1057.6,519.8 L1056.3,524.1 L1054.3,529.9 L1052.3,534.8 L1050.4,539.1 L1048.1,543.4 L1045.7,547.7 L1042.8,552.0 L1040.5,555.2 L1037.8,558.5 L1033.7,562.8 L1031.2,565.1 L1026.6,568.8 L1022.6,571.4 L1018.7,573.5 L1013.8,575.7 L1008.1,577.5 L1003.5,578.4 L996.5,579.1 L989.6,578.9 L982.7,577.9 Z" opacity=".296"/><path d="M215.0,481.3 L213.5,481.1 L212.7,481.1 L210.4,480.7 L208.1,480.1 L205.8,479.4 L204.6,479.0 L203.5,478.5 L201.2,477.5 L200.1,476.8 L198.8,476.2 L196.6,474.7 L196.5,474.7 L194.2,472.9 L193.8,472.6 L191.9,470.9 L191.4,470.4 L189.6,468.5 L189.3,468.3 L187.5,466.1 L187.3,465.8 L185.9,464.0 L185.0,462.7 L184.4,461.8 L183.1,459.7 L182.7,459.0 L181.9,457.5 L180.7,455.4 L180.3,454.5 L179.8,453.2 L178.8,451.1 L178.0,449.0 L178.0,448.9 L177.3,446.8 L176.6,444.6 L176.0,442.5 L175.7,441.2 L175.5,440.3 L175.1,438.2 L174.7,436.0 L174.4,433.9 L174.1,431.7 L173.9,429.6 L173.7,427.4 L173.7,425.3 L173.6,423.2 L173.7,421.0 L173.8,418.9 L173.9,416.7 L174.2,414.6 L174.4,412.4 L174.8,410.3 L175.2,408.1 L175.7,406.0 L175.7,405.8 L176.3,403.8 L176.9,401.7 L177.6,399.5 L178.0,398.4 L178.5,397.4 L179.4,395.2 L180.3,393.2 L180.4,393.1 L181.6,390.9 L182.7,389.1 L182.9,388.8 L184.3,386.6 L185.0,385.7 L186.0,384.5 L187.3,382.9 L187.8,382.3 L189.6,380.5 L190.0,380.2 L191.9,378.5 L192.5,378.0 L194.2,376.8 L195.7,375.9 L196.5,375.4 L198.8,374.2 L199.8,373.7 L201.2,373.2 L203.5,372.4 L205.8,371.8 L207.0,371.6 L208.1,371.4 L210.4,371.2 L212.7,371.1 L215.0,371.1 L217.3,371.4 L218.8,371.6 L219.7,371.7 L222.0,372.3 L224.3,373.0 L226.5,373.7 L226.6,373.8 L228.9,374.8 L231.1,375.9 L231.2,375.9 L233.5,377.3 L234.7,378.0 L235.8,378.8 L237.8,380.2 L238.2,380.5 L240.4,382.3 L240.5,382.4 L242.8,384.5 L242.8,384.5 L244.9,386.6 L245.1,386.9 L246.7,388.8 L247.4,389.6 L248.5,390.9 L249.7,392.6 L250.0,393.1 L251.4,395.2 L252.0,396.2 L252.7,397.4 L253.9,399.5 L254.3,400.3 L255.0,401.7 L256.0,403.8 L256.6,405.4 L256.9,406.0 L257.7,408.1 L258.4,410.3 L259.0,412.2 L259.0,412.4 L259.6,414.6 L260.0,416.7 L260.4,418.9 L260.7,421.0 L261.0,423.2 L261.1,425.3 L261.2,427.4 L261.2,429.6 L261.2,431.7 L261.0,433.9 L260.8,436.0 L260.5,438.2 L260.1,440.3 L259.7,442.5 L259.1,444.6 L259.0,445.2 L258.5,446.8 L257.8,448.9 L256.9,451.1 L256.6,451.8 L256.0,453.2 L255.0,455.4 L254.3,456.6 L253.8,457.5 L252.6,459.7 L252.0,460.5 L251.1,461.8 L249.7,463.8 L249.6,464.0 L247.8,466.1 L247.4,466.6 L245.9,468.3 L245.1,469.0 L243.6,470.4 L242.8,471.2 L241.1,472.6 L240.5,473.1 L238.2,474.7 L238.2,474.7 L235.8,476.1 L234.5,476.8 L233.5,477.4 L231.2,478.4 L229.7,479.0 L228.9,479.3 L226.6,480.0 L224.3,480.6 L222.0,481.0 L220.6,481.1 L219.7,481.3 L217.3,481.3 L215.0,481.3 Z" opacity=".296"/><path d="M982.7,610.3 L978.0,609.4 L972.2,607.9 L966.5,606.0 L961.8,604.2 L957.2,602.1 L952.6,599.8 L948.0,597.3 L944.2,595.0 L940.8,592.8 L936.4,589.8 L931.9,586.4 L929.2,584.2 L924.9,580.6 L921.8,577.8 L917.9,574.1 L915.1,571.4 L911.1,567.1 L908.7,564.3 L905.5,560.6 L902.1,556.3 L899.4,552.8 L897.1,549.6 L894.4,545.6 L891.7,541.3 L889.1,537.0 L886.7,532.7 L884.5,528.4 L882.4,524.1 L880.5,519.8 L878.6,515.1 L876.4,509.1 L875.0,504.8 L873.8,500.5 L872.2,494.0 L871.4,489.7 L870.3,483.3 L869.7,476.8 L869.4,471.7 L869.3,466.1 L869.4,461.8 L869.8,455.4 L870.6,448.9 L871.7,443.1 L872.8,438.2 L874.0,433.6 L876.0,427.4 L877.5,423.2 L879.3,418.9 L881.2,414.6 L883.4,410.3 L885.7,406.0 L888.3,401.7 L891.1,397.4 L894.1,393.1 L897.1,389.2 L899.4,386.3 L902.9,382.3 L906.4,378.6 L909.1,375.9 L913.3,371.9 L916.1,369.5 L920.2,366.1 L924.4,363.0 L927.4,360.9 L931.8,358.0 L936.4,355.3 L941.0,352.8 L945.7,350.5 L950.3,348.6 L954.9,346.8 L959.5,345.3 L965.8,343.7 L971.1,342.6 L978.0,341.7 L982.7,341.4 L989.6,341.4 L994.2,341.8 L1001.2,342.8 L1005.8,343.8 L1012.2,345.8 L1017.3,347.9 L1022.0,350.1 L1025.9,352.3 L1029.3,354.4 L1033.5,357.4 L1037.9,360.9 L1040.5,363.2 L1044.6,367.3 L1047.4,370.3 L1050.3,373.7 L1053.6,378.0 L1056.6,382.3 L1059.0,386.0 L1061.3,390.0 L1063.6,394.2 L1065.9,398.9 L1068.1,403.8 L1069.9,408.1 L1071.5,412.4 L1073.0,416.7 L1075.0,423.2 L1076.2,427.4 L1077.5,432.3 L1078.7,438.2 L1079.8,443.6 L1080.6,448.9 L1081.5,455.4 L1082.1,461.0 L1082.5,466.1 L1082.8,472.6 L1082.9,479.0 L1082.9,485.4 L1082.7,491.9 L1082.2,498.3 L1081.8,502.6 L1081.1,509.1 L1080.1,515.5 L1079.3,519.8 L1078.0,526.3 L1077.0,530.5 L1075.2,537.0 L1073.9,541.3 L1072.5,545.6 L1070.5,550.8 L1068.2,556.3 L1066.3,560.6 L1064.1,564.9 L1061.7,569.2 L1059.1,573.5 L1056.6,577.2 L1054.3,580.4 L1051.2,584.2 L1047.4,588.5 L1045.1,590.9 L1040.6,595.0 L1037.9,597.1 L1033.5,600.2 L1028.9,603.0 L1024.3,605.4 L1019.7,607.3 L1015.0,608.8 L1010.1,610.0 L1003.5,611.1 L996.5,611.5 L989.6,611.2 L982.7,610.3 Z" opacity=".292"/><path d="M212.7,528.5 L208.1,527.9 L201.3,526.3 L196.5,524.6 L191.9,522.6 L187.3,520.1 L183.4,517.7 L180.3,515.5 L175.7,511.6 L173.1,509.1 L169.1,504.8 L166.5,501.6 L164.0,498.3 L161.1,494.0 L158.5,489.7 L156.2,485.4 L154.1,481.1 L152.2,476.8 L150.3,472.1 L148.3,466.1 L147.0,461.8 L145.7,456.8 L144.4,451.1 L143.4,445.1 L142.7,440.3 L142.0,433.9 L141.6,427.4 L141.5,421.0 L141.7,414.6 L142.1,408.1 L142.8,401.7 L143.5,397.4 L144.7,390.9 L145.7,386.6 L147.5,380.2 L148.9,375.9 L150.5,371.6 L152.6,366.8 L154.9,362.1 L157.2,358.0 L159.5,354.3 L162.5,350.1 L166.0,345.8 L168.8,342.9 L172.5,339.4 L175.7,336.8 L180.3,333.6 L185.0,331.0 L189.6,328.9 L194.2,327.3 L198.8,326.2 L205.8,325.1 L212.7,324.9 L219.7,325.5 L225.4,326.5 L231.2,328.0 L235.8,329.6 L240.5,331.4 L245.1,333.6 L249.7,336.1 L254.3,338.9 L258.2,341.5 L261.3,343.8 L265.9,347.5 L268.8,350.1 L272.8,354.0 L275.3,356.6 L279.1,360.9 L282.1,364.5 L284.4,367.5 L287.3,371.6 L290.0,375.9 L292.5,380.2 L294.8,384.5 L296.8,388.8 L298.7,393.1 L300.6,398.2 L302.3,403.8 L303.5,408.1 L304.8,414.6 L305.4,418.9 L306.1,425.3 L306.3,431.7 L306.0,438.2 L305.4,444.6 L304.7,448.9 L303.3,455.4 L302.2,459.7 L300.6,464.5 L298.3,470.4 L296.3,474.7 L294.1,479.0 L291.6,483.3 L289.0,487.4 L286.7,490.7 L284.1,494.0 L280.5,498.3 L277.5,501.6 L274.3,504.8 L270.5,508.1 L266.7,511.2 L263.6,513.6 L259.0,516.6 L254.3,519.3 L249.7,521.6 L245.1,523.6 L240.5,525.3 L235.8,526.6 L228.9,528.0 L224.3,528.6 L217.3,528.8 Z" opacity=".292"/><path d="M982.7,644.5 L973.4,642.7 L964.3,640.1 L957.2,637.6 L948.0,633.7 L941.0,630.2 L934.1,626.3 L927.2,622.0 L920.2,617.3 L913.3,612.2 L907.9,607.9 L901.7,602.7 L895.7,597.1 L890.2,591.8 L885.0,586.4 L879.1,580.0 L874.0,573.9 L869.4,568.0 L864.7,561.8 L860.1,555.1 L855.5,547.8 L851.7,541.3 L848.2,534.8 L844.1,526.3 L841.3,519.8 L838.1,511.2 L835.4,502.6 L833.2,494.0 L831.6,485.4 L830.3,474.7 L829.9,466.1 L830.1,457.5 L831.1,446.8 L832.6,438.2 L834.7,429.6 L837.4,421.0 L840.8,412.4 L843.9,405.5 L848.2,397.4 L852.0,390.9 L856.3,384.5 L861.0,378.0 L866.1,371.6 L871.7,365.2 L876.3,360.4 L882.4,354.4 L887.9,349.5 L894.8,343.8 L900.7,339.4 L906.8,335.1 L913.6,330.8 L921.1,326.5 L929.5,322.3 L936.4,319.2 L945.7,315.8 L952.6,313.6 L961.8,311.4 L973.4,309.6 L982.7,309.0 L992.3,309.3 L1003.5,310.8 L1012.7,313.1 L1020.4,315.8 L1028.9,319.6 L1035.8,323.6 L1042.8,328.4 L1048.4,332.9 L1054.3,338.5 L1059.2,343.7 L1064.5,350.1 L1069.2,356.6 L1073.4,363.0 L1077.5,370.1 L1081.5,378.0 L1084.4,384.5 L1087.9,393.1 L1090.9,401.7 L1093.5,410.3 L1095.7,418.9 L1097.6,427.4 L1099.2,436.0 L1100.6,444.9 L1101.8,455.4 L1102.6,466.1 L1102.9,474.7 L1103.0,485.4 L1102.8,494.0 L1102.1,504.8 L1101.0,515.5 L1099.8,524.1 L1098.3,533.1 L1096.0,543.4 L1093.8,552.0 L1091.3,560.4 L1089.0,567.1 L1085.7,575.7 L1082.1,583.8 L1078.5,590.7 L1074.9,597.1 L1070.5,603.9 L1065.9,610.2 L1060.6,616.5 L1054.3,622.8 L1049.2,627.2 L1042.8,631.9 L1035.8,636.0 L1027.0,640.1 L1019.7,642.6 L1010.4,644.6 L998.8,645.6 L987.3,645.1 Z" opacity=".286"/><path d="M210.4,569.3 L203.5,568.2 L196.5,566.4 L189.6,564.0 L182.7,560.9 L178.0,558.4 L171.5,554.2 L166.5,550.3 L161.8,546.3 L157.2,541.7 L153.0,537.0 L149.5,532.7 L145.7,527.4 L142.1,522.0 L138.7,516.2 L136.1,511.2 L133.0,504.8 L130.2,498.3 L127.8,491.9 L125.6,485.4 L123.6,479.0 L122.0,472.6 L120.2,465.0 L118.8,457.5 L117.8,451.1 L116.8,442.5 L116.1,433.9 L115.7,425.3 L115.7,416.7 L116.0,408.1 L116.6,399.5 L117.6,390.9 L118.5,384.5 L120.2,375.9 L121.7,369.5 L123.4,363.0 L125.4,356.6 L127.7,350.1 L130.4,343.7 L133.4,337.2 L136.4,331.7 L139.5,326.5 L143.4,320.9 L147.3,315.8 L151.1,311.5 L155.4,307.2 L160.3,302.9 L166.1,298.6 L171.1,295.5 L177.8,292.1 L183.3,290.0 L190.5,287.8 L198.8,286.3 L205.8,285.7 L213.6,285.7 L222.0,286.4 L229.8,287.8 L238.2,290.0 L244.7,292.1 L250.2,294.3 L256.6,297.1 L263.6,300.6 L268.2,303.2 L274.5,307.2 L279.8,310.7 L284.4,314.1 L289.3,317.9 L294.4,322.2 L299.2,326.5 L303.7,330.8 L307.8,335.1 L312.1,339.8 L316.8,345.3 L320.6,350.1 L323.7,354.4 L328.1,360.9 L330.8,365.2 L334.5,371.6 L337.6,377.5 L339.9,382.5 L342.5,388.8 L344.9,395.2 L346.9,401.7 L348.9,410.3 L350.1,416.7 L351.1,425.3 L351.4,433.8 L351.4,438.2 L350.8,446.8 L349.5,455.4 L348.2,461.8 L346.4,468.3 L344.3,474.7 L341.8,481.1 L338.9,487.6 L335.5,494.0 L332.9,498.5 L329.0,504.8 L326.0,509.1 L321.4,515.1 L317.5,519.8 L313.6,524.1 L309.5,528.4 L305.0,532.7 L300.2,537.0 L295.0,541.3 L289.2,545.6 L284.4,548.9 L279.4,552.0 L272.8,555.8 L267.5,558.5 L261.3,561.2 L254.3,563.9 L247.4,566.1 L240.5,567.8 L231.6,569.2 L224.3,569.8 L215.0,569.7 Z" opacity=".286"/><path d="M978.0,678.9 L967.4,676.6 L957.2,673.6 L947.8,670.2 L937.9,665.9 L929.2,661.6 L920.2,656.6 L911.0,651.0 L904.0,646.5 L895.0,640.1 L887.9,634.7 L880.9,629.1 L873.6,622.9 L866.4,616.5 L859.6,610.0 L853.1,603.6 L846.2,596.3 L839.3,588.6 L833.8,582.1 L827.7,574.6 L822.0,567.1 L816.2,558.9 L811.6,551.9 L806.3,543.4 L801.5,534.8 L797.2,526.3 L793.1,517.1 L789.2,506.9 L786.1,497.1 L783.8,487.6 L781.8,474.7 L781.1,464.0 L781.5,451.5 L782.9,440.3 L785.3,429.6 L788.4,419.4 L792.0,410.3 L796.0,401.7 L800.6,393.1 L805.9,384.5 L811.6,376.2 L816.6,369.5 L823.1,361.5 L829.4,354.4 L835.6,348.0 L842.2,341.5 L849.3,335.1 L856.8,328.6 L864.7,322.4 L871.7,317.3 L880.2,311.5 L887.9,306.6 L897.1,301.2 L906.1,296.4 L915.2,292.1 L924.9,288.1 L934.1,284.7 L945.2,281.4 L954.9,279.1 L967.5,277.1 L980.3,276.2 L994.2,276.6 L1005.8,278.2 L1017.3,281.1 L1026.6,284.4 L1035.8,288.6 L1045.1,294.0 L1052.0,298.9 L1059.5,305.0 L1066.2,311.5 L1072.8,318.7 L1079.0,326.5 L1084.4,334.3 L1089.0,341.7 L1093.6,350.1 L1098.3,359.6 L1102.5,369.5 L1105.7,378.0 L1109.3,388.8 L1112.1,398.7 L1114.5,408.1 L1116.8,418.9 L1119.0,431.7 L1120.4,442.5 L1121.5,453.2 L1122.3,466.1 L1122.7,479.0 L1122.6,491.9 L1122.1,504.8 L1121.3,515.5 L1119.8,528.4 L1118.2,539.1 L1116.3,549.9 L1113.9,560.6 L1111.1,571.4 L1107.8,582.1 L1104.8,590.7 L1100.6,601.2 L1096.5,610.0 L1092.1,618.6 L1087.0,627.2 L1082.1,634.5 L1076.1,642.2 L1070.5,648.7 L1063.6,655.4 L1056.1,661.6 L1047.4,667.4 L1038.2,672.3 L1028.9,675.9 L1018.4,678.8 L1005.8,680.5 L991.9,680.6 L978.0,678.9 Z" opacity=".279"/><path d="M208.1,608.1 L198.8,606.5 L189.6,604.0 L182.7,601.4 L173.5,597.1 L166.5,593.0 L160.0,588.5 L154.5,584.2 L148.0,578.3 L143.3,573.5 L137.7,567.1 L132.8,560.6 L128.3,554.2 L124.3,547.7 L120.2,540.4 L116.3,532.7 L113.3,526.0 L109.9,517.7 L106.8,509.1 L104.1,500.5 L101.7,492.2 L99.6,483.3 L97.8,474.7 L96.2,466.1 L94.8,456.2 L93.8,446.8 L92.9,436.0 L92.5,425.5 L92.4,416.7 L92.6,408.1 L93.1,397.4 L94.1,386.6 L95.2,378.0 L97.0,367.3 L98.7,358.7 L100.8,350.1 L103.2,341.5 L106.0,332.9 L108.7,325.9 L112.1,317.9 L115.6,310.6 L119.8,302.9 L123.9,296.4 L128.4,290.0 L133.5,283.5 L138.7,277.9 L144.1,272.8 L150.3,267.7 L157.2,262.9 L164.2,258.9 L171.4,255.6 L180.3,252.5 L189.6,250.3 L198.8,249.0 L210.4,248.6 L219.7,249.2 L231.2,250.9 L240.5,253.0 L249.4,255.6 L256.6,258.1 L265.9,261.9 L272.8,265.1 L279.8,268.6 L287.3,272.8 L294.4,277.1 L301.0,281.4 L307.5,285.9 L314.5,291.0 L321.4,296.4 L326.5,300.7 L332.9,306.4 L338.4,311.5 L344.5,317.4 L349.1,322.2 L355.0,328.6 L360.5,335.1 L365.3,341.0 L369.9,347.1 L374.6,353.7 L379.2,360.8 L383.1,367.3 L386.7,373.7 L390.8,382.1 L393.7,388.8 L396.9,397.4 L399.5,406.0 L401.5,414.6 L402.8,423.2 L403.7,433.9 L403.6,444.6 L402.4,455.4 L400.8,464.0 L398.5,472.6 L395.5,481.1 L392.9,487.6 L388.8,496.2 L385.3,502.6 L381.5,509.1 L376.9,516.0 L372.3,522.4 L367.6,528.4 L362.2,534.8 L356.3,541.3 L351.4,546.3 L345.6,552.0 L339.9,557.2 L333.4,562.8 L328.0,567.1 L321.4,572.0 L314.5,576.9 L307.5,581.4 L300.6,585.6 L293.6,589.4 L286.7,592.9 L277.5,597.0 L270.5,599.8 L261.3,602.9 L252.0,605.4 L242.8,607.3 L233.5,608.5 L222.0,609.0 L210.4,608.4 Z" opacity=".279"/><path d="M987.3,713.3 L973.4,711.2 L961.8,708.5 L948.9,704.5 L937.6,700.2 L927.2,695.7 L915.6,689.9 L906.4,684.9 L896.0,678.8 L885.9,672.3 L876.4,665.9 L867.5,659.4 L858.9,653.0 L850.8,646.5 L841.6,639.0 L832.9,631.5 L825.4,624.8 L816.5,616.5 L809.2,609.5 L801.2,601.4 L793.1,592.9 L786.1,585.4 L779.2,577.5 L772.1,569.2 L765.2,560.6 L758.4,551.7 L751.4,542.0 L745.3,532.7 L739.9,523.8 L734.2,513.4 L729.2,502.6 L725.1,491.9 L721.6,479.0 L719.6,466.1 L719.4,451.1 L721.4,437.2 L724.7,425.3 L729.0,414.6 L734.4,403.8 L739.9,394.6 L746.8,384.5 L753.3,375.9 L760.5,367.3 L767.6,359.3 L774.6,352.1 L783.1,343.7 L790.8,336.5 L799.7,328.6 L807.4,322.2 L816.2,315.2 L825.4,308.2 L834.7,301.5 L843.9,295.3 L853.2,289.3 L862.8,283.5 L874.0,277.2 L883.2,272.4 L894.8,266.9 L906.0,262.1 L917.4,257.8 L929.5,253.8 L941.0,250.7 L954.9,247.9 L968.8,246.2 L985.0,245.6 L1001.2,246.8 L1013.6,249.2 L1026.6,253.0 L1038.1,257.8 L1047.4,262.6 L1056.6,268.6 L1065.9,275.7 L1074.4,283.5 L1082.1,291.7 L1089.0,300.3 L1095.4,309.3 L1100.9,317.9 L1106.8,328.6 L1112.1,339.4 L1116.7,350.1 L1120.8,360.9 L1124.3,371.6 L1128.1,384.5 L1130.7,395.2 L1133.5,408.1 L1135.7,421.0 L1137.6,434.3 L1139.1,448.9 L1140.0,461.8 L1140.5,476.8 L1140.5,491.9 L1140.0,506.9 L1139.1,519.8 L1137.6,534.3 L1135.7,547.7 L1133.5,560.6 L1130.8,573.5 L1128.1,584.2 L1124.4,597.1 L1120.8,607.9 L1116.7,618.6 L1112.1,629.4 L1106.8,640.1 L1100.8,650.8 L1095.2,659.4 L1088.9,668.0 L1081.6,676.6 L1073.0,685.2 L1065.3,691.6 L1055.9,698.1 L1045.1,704.0 L1033.5,708.6 L1022.0,711.6 L1008.1,713.5 L991.9,713.6 Z" opacity=".271"/><path d="M219.7,644.4 L208.1,643.6 L196.5,641.6 L185.0,638.4 L175.7,634.9 L166.5,630.4 L157.5,625.1 L150.3,620.0 L143.4,614.3 L136.4,607.8 L129.5,600.3 L123.4,592.8 L117.9,585.4 L112.9,577.8 L107.9,569.2 L103.3,560.6 L99.3,552.0 L94.8,541.5 L91.5,532.7 L87.9,522.0 L85.3,513.4 L82.5,502.6 L80.0,491.9 L78.0,481.1 L76.2,470.4 L74.6,457.5 L73.6,446.8 L72.8,433.9 L72.4,421.0 L72.5,408.1 L73.0,395.2 L74.0,382.9 L75.3,371.6 L76.8,360.9 L78.8,350.1 L81.1,339.4 L84.0,328.6 L87.2,317.9 L90.3,309.3 L94.6,298.6 L98.6,290.0 L103.1,281.4 L108.2,272.8 L113.3,265.2 L119.0,257.8 L124.9,251.1 L131.8,244.3 L138.8,238.4 L148.0,232.0 L155.5,227.7 L164.8,223.4 L175.7,219.7 L187.3,217.1 L198.8,215.8 L212.7,215.7 L226.6,216.9 L238.2,219.0 L247.5,221.2 L259.0,224.7 L268.2,228.0 L278.0,232.0 L287.4,236.3 L296.0,240.6 L305.2,245.5 L314.5,250.9 L322.1,255.6 L330.6,261.2 L338.2,266.3 L346.8,272.6 L353.8,277.9 L361.0,283.5 L368.8,290.0 L376.3,296.4 L383.5,302.9 L390.4,309.3 L397.0,315.8 L403.4,322.2 L409.5,328.6 L416.2,336.0 L422.8,343.7 L428.0,350.1 L434.6,358.7 L439.3,365.3 L444.9,373.7 L450.1,382.3 L454.7,390.9 L458.6,399.5 L462.4,409.6 L465.1,418.9 L467.1,429.6 L467.9,442.5 L467.1,454.1 L464.7,465.7 L462.0,474.7 L457.8,484.9 L453.2,494.0 L448.6,502.0 L443.9,509.1 L437.7,517.7 L432.4,524.5 L425.5,532.7 L419.7,539.1 L413.5,545.6 L406.9,552.2 L400.0,558.8 L393.1,565.0 L385.7,571.4 L377.9,577.8 L369.9,584.0 L363.0,589.2 L354.9,595.0 L346.8,600.4 L338.6,605.7 L330.6,610.5 L321.4,615.7 L312.1,620.6 L302.9,625.0 L293.6,629.0 L284.4,632.7 L275.1,635.8 L263.6,639.2 L252.0,641.7 L240.5,643.5 L228.5,644.4 Z" opacity=".271"/><path d="M980.3,739.2 L966.5,736.6 L950.9,732.5 L938.4,728.2 L924.9,722.7 L913.3,717.4 L900.8,711.0 L889.2,704.5 L878.4,698.1 L867.1,690.9 L855.5,683.2 L846.0,676.6 L834.7,668.4 L825.4,661.4 L814.5,653.0 L804.6,645.1 L795.4,637.6 L785.5,629.4 L775.4,620.8 L765.5,612.2 L756.1,603.8 L746.8,595.5 L737.6,587.1 L728.3,578.6 L719.1,570.0 L709.8,561.4 L700.6,552.6 L691.3,543.8 L682.1,535.0 L673.0,526.3 L664.2,517.7 L655.3,509.1 L646.5,500.5 L637.8,491.9 L628.9,483.1 L619.7,474.0 L610.4,464.6 L601.8,455.4 L603.5,443.3 L612.7,434.7 L622.0,426.6 L631.2,418.7 L641.2,410.3 L651.5,401.7 L661.3,393.5 L670.5,385.9 L680.2,378.0 L690.8,369.5 L700.6,361.7 L709.8,354.4 L720.8,345.8 L730.6,338.3 L740.7,330.8 L751.4,322.9 L761.3,315.8 L772.3,308.0 L782.9,300.7 L793.1,294.0 L804.6,286.5 L816.2,279.3 L827.1,272.8 L838.4,266.3 L850.3,259.9 L862.4,253.8 L874.0,248.3 L886.7,242.7 L899.4,237.7 L913.3,232.9 L927.2,228.8 L941.0,225.5 L957.2,222.7 L975.2,221.2 L989.6,221.3 L1007.8,223.4 L1022.0,226.6 L1035.8,231.4 L1047.4,236.8 L1059.0,243.6 L1069.6,251.3 L1079.5,259.9 L1087.9,268.5 L1096.0,278.1 L1103.1,287.8 L1110.0,298.6 L1116.8,310.6 L1122.5,322.2 L1128.0,335.1 L1132.9,348.0 L1137.1,360.9 L1140.7,373.7 L1144.3,388.8 L1147.0,401.7 L1149.5,416.7 L1151.4,431.7 L1153.1,448.9 L1154.0,464.0 L1154.4,481.1 L1154.3,498.3 L1153.6,513.4 L1152.3,530.5 L1150.6,545.6 L1148.4,560.6 L1145.7,575.7 L1142.4,590.7 L1139.0,603.6 L1135.1,616.5 L1130.6,629.4 L1125.5,642.2 L1119.5,655.1 L1113.9,665.9 L1107.4,676.6 L1100.0,687.4 L1091.3,698.1 L1083.1,706.7 L1073.4,715.3 L1063.6,722.3 L1052.0,728.9 L1038.2,734.6 L1024.3,738.3 L1008.1,740.4 L989.6,740.2 Z" opacity=".263"/><path d="M217.3,672.4 L201.2,670.6 L187.3,667.5 L173.4,662.7 L161.8,657.3 L150.3,650.3 L139.6,642.2 L130.0,633.7 L121.9,625.1 L113.3,614.5 L106.4,604.7 L99.4,593.6 L93.2,582.1 L87.9,571.0 L82.5,558.5 L77.8,545.6 L73.6,532.7 L69.4,517.7 L66.4,504.8 L63.5,489.7 L61.1,474.7 L59.3,459.7 L57.9,442.5 L57.3,427.4 L57.2,410.3 L57.8,393.1 L58.9,378.0 L60.5,363.0 L62.8,348.0 L65.8,332.9 L69.4,318.3 L73.3,305.0 L77.8,292.1 L83.0,279.2 L88.2,268.5 L94.8,256.5 L101.7,245.8 L109.0,236.3 L117.9,226.3 L127.2,217.7 L136.7,210.5 L148.0,203.6 L161.1,197.6 L174.9,193.3 L189.6,190.6 L208.1,189.7 L226.6,191.0 L240.5,193.4 L256.6,197.4 L270.5,201.8 L282.1,206.2 L296.0,212.1 L307.5,217.6 L319.1,223.6 L330.6,230.0 L342.2,236.8 L353.8,244.1 L364.8,251.3 L374.6,258.0 L386.1,266.1 L395.4,272.9 L406.6,281.4 L416.2,288.8 L425.8,296.4 L436.3,305.0 L446.2,313.2 L455.5,321.1 L464.7,329.0 L474.2,337.2 L483.9,345.8 L493.4,354.4 L502.9,363.0 L512.2,371.6 L521.5,380.2 L530.6,388.8 L539.7,397.4 L548.7,406.0 L557.6,414.6 L566.5,423.2 L575.7,432.4 L585.0,442.1 L587.3,453.4 L578.0,462.6 L568.8,470.7 L559.2,479.0 L549.0,487.6 L538.8,496.2 L529.5,504.0 L520.2,511.7 L510.4,519.8 L499.9,528.4 L490.2,536.2 L480.9,543.6 L470.3,552.0 L460.1,559.9 L450.7,567.1 L439.3,575.6 L430.1,582.4 L418.5,590.6 L409.1,597.1 L397.7,604.9 L386.5,612.2 L376.2,618.6 L365.3,625.1 L353.8,631.8 L342.2,638.0 L329.5,644.4 L316.8,650.3 L305.2,655.1 L291.3,660.3 L277.5,664.6 L263.6,668.1 L247.4,671.0 L231.2,672.4 Z" opacity=".263"/><path d="M978.0,769.1 L948.8,762.5 L922.5,753.2 L897.1,741.7 L874.0,729.5 L850.9,715.9 L829.5,702.4 L806.9,687.4 L786.1,673.1 L765.3,658.6 L744.5,644.3 L722.3,629.4 L700.6,615.6 L677.5,602.3 L653.7,590.7 L626.6,580.9 L596.5,575.5 L561.8,576.7 L531.8,583.7 L506.4,593.0 L480.9,604.4 L456.8,616.5 L432.4,629.3 L409.2,641.6 L386.1,653.6 L361.4,665.9 L337.6,676.6 L310.3,687.4 L282.7,695.9 L252.0,702.1 L217.3,703.7 L185.0,698.5 L159.5,688.7 L137.0,674.5 L117.9,657.3 L101.8,637.9 L87.9,616.5 L76.3,593.9 L66.2,569.2 L57.8,543.2 L50.9,515.0 L45.7,485.4 L42.1,453.2 L40.7,421.0 L41.5,386.6 L44.3,356.6 L49.1,326.5 L55.9,298.6 L64.7,271.9 L75.8,247.0 L88.4,225.5 L104.0,205.5 L122.5,188.3 L145.6,174.0 L171.1,164.9 L203.5,161.0 L235.8,163.7 L265.9,170.8 L293.6,180.4 L318.5,191.2 L342.2,202.9 L365.3,215.5 L388.4,229.0 L411.1,242.7 L432.4,255.9 L455.5,270.1 L478.0,283.5 L501.2,296.4 L524.9,308.0 L550.3,318.0 L580.3,325.3 L615.0,326.6 L645.1,321.7 L672.8,313.0 L698.3,302.6 L723.7,290.5 L746.8,278.7 L770.4,266.3 L795.2,253.5 L818.5,241.7 L843.6,229.8 L868.7,219.1 L894.8,209.5 L922.5,201.3 L953.6,195.5 L989.6,194.0 L1022.0,198.9 L1048.0,208.4 L1070.5,221.7 L1090.2,238.4 L1107.1,257.8 L1121.4,279.0 L1132.9,300.8 L1143.7,326.5 L1152.0,352.3 L1159.0,380.2 L1164.3,410.3 L1167.8,440.3 L1169.6,474.7 L1169.2,509.1 L1166.9,541.3 L1163.0,571.4 L1157.1,601.4 L1149.6,629.4 L1140.7,655.1 L1130.2,678.8 L1116.8,702.4 L1102.6,721.7 L1084.4,740.2 L1063.6,754.9 L1038.2,765.7 L1005.8,770.8 Z" opacity=".254"/><path d="M991.9,803.5 L961.4,799.0 L931.8,790.6 L906.4,780.8 L880.9,769.1 L857.8,757.2 L834.7,744.4 L811.6,731.0 L788.7,717.4 L766.9,704.5 L744.5,691.6 L721.1,678.8 L696.0,666.2 L670.5,655.2 L645.1,646.5 L615.0,639.6 L580.3,636.7 L545.7,639.3 L515.6,645.5 L487.9,653.8 L460.8,663.7 L434.7,674.3 L409.2,685.1 L384.0,695.9 L358.4,706.4 L332.9,716.1 L305.2,725.1 L276.0,732.5 L245.1,737.0 L208.6,736.8 L178.0,730.6 L152.6,720.1 L131.3,706.7 L111.7,689.5 L94.9,670.2 L80.9,649.8 L68.4,627.2 L57.7,603.6 L48.3,577.8 L40.2,549.9 L33.9,522.0 L28.9,491.9 L25.4,460.1 L23.8,427.4 L24.0,393.1 L26.1,360.9 L30.1,330.3 L35.8,300.7 L43.3,272.8 L52.5,247.0 L63.3,223.4 L76.3,201.3 L92.3,180.4 L110.0,163.2 L131.8,148.3 L156.9,137.5 L187.3,131.3 L219.7,131.1 L252.0,136.1 L280.8,143.9 L307.5,153.4 L332.9,164.0 L358.4,175.8 L381.5,187.2 L406.2,199.8 L430.1,212.0 L453.2,223.6 L478.6,235.6 L504.0,246.4 L529.7,255.6 L559.5,263.5 L591.9,268.0 L624.3,268.0 L656.6,263.7 L686.7,256.3 L714.5,247.3 L739.9,237.8 L765.3,227.4 L790.8,216.7 L816.2,206.1 L842.9,195.5 L869.4,185.8 L897.1,177.1 L927.2,169.7 L957.2,165.3 L994.2,164.8 L1024.4,169.7 L1052.0,179.5 L1075.1,192.7 L1094.5,208.4 L1112.1,227.2 L1126.7,247.0 L1139.9,269.7 L1151.3,294.3 L1160.7,319.3 L1168.5,345.8 L1175.0,373.7 L1180.0,403.8 L1183.6,436.0 L1185.4,468.3 L1185.5,502.6 L1183.8,536.1 L1180.6,567.1 L1175.8,597.1 L1169.8,625.1 L1162.0,653.0 L1152.9,678.8 L1142.2,703.0 L1129.5,726.0 L1114.5,747.4 L1098.3,765.2 L1077.5,781.9 L1054.3,794.1 L1026.6,801.9 L991.9,803.5 Z" opacity=".243"/><path d="M1200.0,544.1 L1196.8,575.7 L1192.3,605.7 L1186.2,635.8 L1179.2,663.1 L1170.8,689.5 L1160.7,715.3 L1149.4,738.9 L1136.7,760.4 L1121.4,781.3 L1104.7,799.0 L1084.4,815.2 L1061.3,827.6 L1033.5,836.1 L998.8,838.8 L966.5,835.2 L936.4,827.8 L909.2,818.4 L883.4,807.6 L860.1,796.8 L834.7,784.1 L811.6,772.0 L788.4,759.9 L764.6,747.5 L739.9,735.1 L715.6,723.9 L689.6,713.1 L663.6,704.1 L633.5,696.3 L603.5,691.6 L566.5,690.3 L531.8,693.5 L501.7,699.3 L473.8,706.7 L446.2,715.4 L418.5,725.0 L391.7,734.6 L365.3,744.0 L337.6,753.3 L309.8,761.4 L279.8,768.2 L247.4,772.6 L215.0,772.9 L182.7,767.8 L155.4,758.2 L132.3,745.3 L112.8,730.3 L94.8,712.1 L78.8,691.6 L65.2,670.2 L53.2,647.0 L42.8,622.9 L33.6,597.1 L25.5,569.2 L19.0,541.3 L13.9,512.9 L9.8,481.1 L7.2,448.9 L6.2,416.7 L6.9,382.7 L9.2,351.1 L13.2,320.0 L18.5,291.4 L25.4,263.4 L34.2,236.3 L43.9,212.4 L55.9,189.0 L69.8,167.5 L85.8,148.2 L104.6,131.0 L127.2,116.4 L152.6,105.9 L182.7,99.8 L215.0,99.1 L247.4,103.1 L277.5,110.2 L305.2,118.9 L332.1,128.9 L358.3,139.6 L383.0,150.4 L407.1,161.1 L432.4,172.2 L457.8,183.0 L484.2,193.3 L511.0,202.5 L540.5,210.5 L571.1,216.2 L605.8,218.9 L642.8,217.4 L674.8,212.6 L703.3,206.2 L732.9,197.8 L759.8,189.0 L786.1,179.9 L813.9,170.1 L840.3,161.1 L867.3,152.5 L897.1,144.3 L927.2,137.9 L959.5,133.9 L996.5,134.0 L1028.9,139.5 L1054.3,148.4 L1078.0,161.1 L1098.3,176.4 L1116.8,194.8 L1132.5,214.8 L1146.1,236.3 L1158.3,259.9 L1168.3,283.5 L1177.2,309.3 L1184.9,337.2 L1191.0,365.2 L1195.9,395.2 L1199.6,427.4 Z" opacity=".23"/><path d="M1200.0,659.3 L1197.3,670.2 L1193.9,683.1 L1190.7,693.8 L1186.6,706.7 L1182.9,717.4 L1178.9,728.2 L1174.6,738.9 L1169.8,749.6 L1164.7,760.4 L1159.2,771.1 L1153.8,780.7 L1147.8,790.5 L1142.0,799.0 L1135.3,808.2 L1128.3,816.8 L1121.1,824.8 L1112.4,833.4 L1105.1,839.9 L1096.0,846.9 L1086.7,853.1 L1075.9,859.2 L1065.9,863.8 L1054.3,868.1 L1040.5,871.9 L1026.7,874.2 L1012.7,875.4 L996.5,875.4 L982.0,874.2 L967.2,872.1 L954.9,869.6 L941.0,866.2 L929.5,862.9 L917.9,859.2 L905.8,854.9 L894.4,850.6 L883.2,846.1 L871.7,841.2 L860.1,836.2 L849.2,831.3 L839.3,826.7 L827.7,821.3 L817.1,816.2 L806.9,811.4 L795.4,805.8 L785.6,801.2 L774.6,796.0 L763.0,790.7 L753.0,786.2 L742.2,781.4 L730.6,776.5 L719.1,771.7 L707.5,767.3 L696.0,763.0 L684.4,759.1 L672.8,755.5 L659.5,751.8 L647.4,748.8 L633.5,745.9 L619.7,743.6 L605.8,741.9 L591.9,740.7 L575.7,740.1 L559.5,740.3 L545.7,741.1 L529.5,742.7 L515.6,744.7 L501.7,747.0 L488.8,749.6 L476.3,752.5 L462.4,755.9 L450.9,759.0 L438.5,762.5 L425.4,766.4 L413.9,769.9 L402.3,773.5 L389.1,777.6 L376.9,781.4 L365.3,784.9 L353.8,788.3 L339.9,792.3 L328.3,795.5 L314.5,799.0 L302.9,801.7 L289.0,804.5 L275.1,806.9 L261.3,808.7 L247.4,809.9 L231.2,810.4 L215.0,809.9 L201.2,808.5 L187.3,806.1 L175.7,803.2 L162.8,799.0 L152.2,794.7 L141.0,789.3 L131.8,784.0 L122.0,777.6 L113.3,771.0 L104.0,763.1 L96.6,756.1 L88.4,747.5 L81.0,738.9 L74.3,730.3 L68.1,721.7 L62.4,713.1 L55.8,702.4 L50.9,693.7 L45.3,683.1 L40.1,672.3 L35.2,661.6 L30.8,650.8 L26.6,640.1 L22.8,629.4 L18.5,616.5 L15.3,605.7 L11.6,592.8 L8.9,582.1 L5.8,569.2 L3.1,556.3 L0.6,543.4 Z" opacity=".215"/><path d="M0.0,287.7 L2.6,274.9 L5.6,262.1 L8.9,249.2 L11.9,238.4 L16.0,225.5 L19.7,214.8 L23.8,204.1 L28.3,193.3 L33.2,182.6 L38.6,171.8 L43.9,162.1 L49.8,152.5 L55.5,143.9 L62.4,134.5 L69.4,126.0 L76.5,118.1 L85.3,109.5 L92.8,103.1 L101.7,96.3 L111.0,90.2 L122.5,83.8 L131.8,79.4 L143.4,75.0 L157.2,71.1 L168.8,68.7 L185.0,66.7 L198.8,66.1 L215.0,66.4 L228.9,67.6 L242.8,69.5 L256.6,72.0 L270.5,75.0 L282.1,78.0 L295.1,81.6 L307.5,85.4 L319.1,89.2 L330.6,93.3 L342.2,97.4 L353.8,101.7 L365.3,106.2 L376.9,110.7 L388.4,115.2 L400.0,119.8 L411.6,124.3 L423.1,128.9 L434.3,133.2 L445.8,137.5 L457.5,141.8 L469.4,145.9 L480.9,149.8 L492.5,153.4 L504.0,156.8 L517.9,160.6 L529.5,163.4 L543.4,166.3 L557.2,168.8 L571.1,170.7 L585.0,172.2 L601.2,173.2 L617.3,173.4 L633.5,173.0 L649.7,171.8 L663.6,170.3 L677.5,168.4 L691.3,166.0 L704.9,163.2 L716.8,160.6 L730.6,157.2 L742.2,154.2 L756.1,150.4 L767.6,147.1 L779.2,143.7 L792.8,139.6 L804.6,136.1 L816.2,132.6 L828.5,128.9 L841.6,125.0 L853.2,121.8 L866.6,118.1 L878.6,115.1 L892.5,111.8 L904.0,109.3 L917.9,106.7 L931.8,104.5 L945.7,102.8 L961.8,101.6 L978.0,101.2 L994.2,101.8 L1008.1,103.2 L1022.0,105.6 L1035.8,109.0 L1047.4,112.6 L1059.0,117.2 L1070.0,122.4 L1079.8,127.9 L1089.0,133.8 L1098.3,140.6 L1107.5,148.2 L1114.5,154.7 L1122.8,163.2 L1130.4,171.8 L1137.3,180.4 L1143.5,189.0 L1149.3,197.6 L1155.9,208.4 L1160.8,216.9 L1166.4,227.7 L1171.5,238.4 L1176.3,249.2 L1180.6,259.9 L1184.6,270.6 L1188.4,281.7 L1192.4,294.3 L1195.5,305.0 L1198.9,317.9 Z" opacity=".215"/><path d="M924.7,900.0 L915.6,897.2 L906.4,894.1 L898.6,891.4 L890.2,888.3 L881.3,885.0 L874.0,882.1 L865.1,878.5 L857.8,875.5 L849.7,872.1 L841.6,868.6 L834.6,865.6 L825.4,861.6 L818.5,858.6 L810.0,854.9 L802.3,851.5 L795.3,848.4 L786.1,844.4 L779.2,841.4 L770.4,837.7 L763.0,834.6 L755.0,831.3 L746.8,828.0 L738.9,824.8 L730.6,821.6 L721.9,818.4 L714.5,815.7 L705.2,812.5 L696.9,809.8 L689.0,807.3 L679.8,804.6 L670.5,802.0 L661.3,799.7 L652.0,797.5 L642.8,795.6 L633.5,793.9 L624.3,792.4 L612.7,790.8 L603.5,789.9 L591.9,788.9 L580.3,788.4 L571.1,788.2 L559.5,788.3 L550.3,788.6 L538.7,789.3 L527.2,790.3 L517.9,791.4 L508.6,792.6 L497.1,794.4 L487.9,796.0 L478.6,797.7 L469.4,799.6 L460.1,801.6 L450.9,803.8 L441.6,806.0 L432.4,808.3 L423.1,810.7 L413.9,813.1 L404.6,815.6 L395.4,818.1 L386.6,820.5 L378.7,822.7 L369.9,825.0 L360.7,827.5 L351.4,829.9 L342.2,832.3 L332.9,834.5 L323.7,836.7 L314.5,838.7 L305.2,840.6 L296.0,842.4 L285.5,844.2 L275.1,845.7 L265.9,846.8 L254.3,847.8 L243.7,848.4 L233.5,848.7 L222.0,848.5 L212.7,847.9 L201.2,846.7 L191.9,845.3 L182.7,843.4 L173.4,841.1 L164.2,838.2 L156.7,835.6 L148.0,832.0 L141.0,828.7 L133.6,824.8 L126.2,820.5 L119.5,816.2 L113.3,811.9 L106.4,806.6 L99.9,801.2 L94.8,796.6 L88.4,790.5 L83.2,785.1 L78.3,779.7 L72.8,773.3 L67.6,766.8 L62.8,760.4 L58.2,753.9 L53.9,747.5 L49.8,741.1 L45.8,734.6 L41.6,727.3 L37.4,719.6 L34.1,713.1 L30.1,705.0 L26.8,698.1 L23.1,689.7 L20.3,683.1 L16.8,674.5 L13.9,666.8 L11.2,659.4 L8.2,650.8 L5.4,642.2 L2.7,633.7 L0.1,625.1 Z" opacity=".199"/><path d="M1200.0,731.9 L1199.8,732.5 L1199.1,734.6 L1198.4,736.8 L1197.7,738.8 L1197.6,738.9 L1196.9,741.1 L1196.1,743.2 L1195.4,745.3 L1195.4,745.3 L1194.6,747.5 L1193.8,749.6 L1193.1,751.5 L1193.0,751.8 L1192.1,753.9 L1191.3,756.1 L1190.8,757.6 L1190.5,758.2 L1189.6,760.4 L1188.8,762.5 L1188.4,763.3 L1187.9,764.7 L1187.0,766.8 L1186.1,768.9 L1186.1,769.0 L1185.2,771.1 L1184.2,773.3 L1183.8,774.2 L1183.3,775.4 L1182.3,777.6 L1181.5,779.4 L1181.4,779.7 L1180.4,781.9 L1179.4,784.0 L1179.2,784.4 L1178.3,786.2 L1177.3,788.3 L1176.9,789.2 L1176.3,790.5 L1175.2,792.6 L1174.6,793.8 L1174.1,794.7 L1173.0,796.9 L1172.3,798.3 L1171.9,799.0 L1170.7,801.2 L1169.9,802.6 L1169.6,803.3 L1168.4,805.5 L1167.6,806.8 L1167.2,807.6 L1166.0,809.8 L1165.3,810.9 L1164.7,811.9 L1163.4,814.1 L1163.0,814.8 L1162.2,816.2 L1160.8,818.4 L1160.7,818.6 L1159.5,820.5 L1158.4,822.3 L1158.1,822.7 L1156.8,824.8 L1156.1,825.9 L1155.3,827.0 L1153.9,829.1 L1153.8,829.3 L1152.4,831.3 L1151.4,832.7 L1150.9,833.4 L1149.4,835.6 L1149.1,835.9 L1147.8,837.7 L1146.8,839.1 L1146.2,839.9 L1144.6,842.0 L1144.5,842.1 L1142.9,844.2 L1142.2,845.1 L1141.2,846.3 L1139.9,847.9 L1139.5,848.4 L1137.7,850.6 L1137.6,850.7 L1135.8,852.7 L1135.3,853.4 L1133.9,854.9 L1132.9,856.0 L1132.0,857.0 L1130.6,858.5 L1130.0,859.2 L1128.3,861.0 L1128.0,861.3 L1126.0,863.3 L1125.8,863.5 L1123.7,865.6 L1123.7,865.6 L1121.4,867.8 L1121.4,867.8 L1119.1,869.9 L1119.1,870.0 L1116.8,872.1 L1116.7,872.1 L1114.5,874.1 L1114.3,874.2 L1112.1,876.0 L1111.7,876.4 L1109.8,877.9 L1109.0,878.5 L1107.5,879.7 L1106.3,880.7 L1105.2,881.5 L1103.4,882.8 L1102.9,883.2 L1100.6,884.8 L1100.4,885.0 L1098.3,886.4 L1097.2,887.1 L1096.0,887.9 L1093.9,889.3 L1093.6,889.4 L1091.3,890.8 L1090.3,891.4 L1089.0,892.2 L1086.7,893.5 L1086.6,893.6 L1084.4,894.8 L1082.6,895.7 L1082.1,896.0 L1079.8,897.1 L1078.3,897.9 L1077.5,898.3 L1075.1,899.3 L1073.7,900.0 Z" opacity=".199"/><path d="M0.0,208.3 L3.6,197.6 L6.9,188.3 L10.8,178.3 L14.4,169.7 L18.5,160.7 L23.1,151.1 L27.7,142.3 L32.4,134.1 L37.0,126.5 L42.5,118.1 L48.6,109.6 L53.6,103.1 L60.1,95.3 L66.7,88.1 L73.2,81.6 L80.4,75.2 L87.9,69.1 L94.8,64.0 L104.0,58.0 L111.6,53.7 L120.2,49.4 L130.3,45.1 L141.0,41.3 L150.5,38.7 L161.8,36.2 L173.6,34.4 L187.3,33.1 L201.2,32.8 L215.0,33.2 L228.9,34.3 L240.5,35.7 L252.0,37.6 L263.6,39.8 L275.1,42.3 L286.6,45.1 L296.0,47.6 L307.5,50.9 L317.0,53.7 L328.3,57.3 L337.6,60.3 L349.1,64.2 L358.4,67.3 L368.5,70.9 L379.2,74.7 L388.4,77.9 L398.8,81.6 L409.2,85.4 L418.5,88.6 L429.3,92.4 L439.3,95.8 L448.6,98.9 L460.1,102.6 L469.4,105.5 L480.9,108.9 L490.8,111.7 L501.7,114.6 L513.3,117.5 L524.9,120.1 L536.4,122.4 L548.0,124.4 L559.5,126.2 L571.1,127.7 L583.6,128.9 L596.5,129.8 L610.4,130.3 L624.3,130.3 L638.2,129.9 L652.0,129.0 L663.6,128.0 L675.1,126.7 L689.0,124.8 L700.6,123.0 L712.1,120.9 L723.7,118.6 L735.3,116.1 L745.4,113.8 L756.1,111.3 L767.6,108.5 L779.2,105.6 L788.7,103.1 L800.0,100.1 L811.6,97.1 L821.4,94.5 L832.4,91.7 L843.9,88.7 L855.2,85.9 L864.7,83.6 L876.3,81.0 L887.9,78.5 L899.4,76.3 L911.0,74.2 L922.5,72.4 L934.3,70.9 L948.0,69.5 L960.3,68.7 L973.4,68.4 L987.3,68.7 L998.8,69.4 L1011.5,70.9 L1024.1,73.0 L1033.6,75.2 L1045.1,78.4 L1054.5,81.6 L1065.1,85.9 L1074.2,90.2 L1082.2,94.5 L1091.3,100.0 L1099.1,105.3 L1107.5,111.6 L1114.5,117.3 L1121.4,123.6 L1128.3,130.4 L1134.9,137.5 L1140.4,143.9 L1146.8,151.9 L1152.1,158.9 L1158.0,167.5 L1163.0,175.3 L1167.6,183.0 L1172.3,191.2 L1176.9,199.9 L1181.5,209.3 L1186.0,219.1 L1189.7,227.7 L1193.2,236.3 L1197.3,247.0 Z" opacity=".199"/><path d="M816.5,900.0 L811.2,897.9 L804.6,895.2 L797.7,892.3 L790.8,889.5 L784.8,887.1 L779.2,884.9 L772.3,882.1 L765.3,879.4 L758.4,876.8 L751.7,874.2 L745.9,872.1 L739.9,869.9 L732.9,867.4 L726.0,865.0 L719.1,862.6 L712.1,860.4 L705.2,858.2 L698.3,856.0 L691.3,854.0 L684.4,852.1 L677.5,850.2 L670.4,848.4 L661.3,846.3 L654.3,844.8 L647.4,843.4 L640.0,842.0 L631.2,840.5 L624.3,839.5 L615.0,838.3 L608.1,837.5 L598.8,836.6 L589.6,836.0 L580.5,835.6 L573.4,835.4 L564.2,835.3 L554.9,835.4 L548.0,835.6 L538.7,836.0 L529.5,836.6 L520.2,837.5 L513.3,838.2 L504.0,839.3 L497.1,840.2 L487.9,841.6 L480.9,842.7 L472.3,844.2 L464.7,845.5 L457.8,846.9 L450.1,848.4 L441.6,850.2 L434.7,851.7 L427.7,853.3 L420.8,854.9 L411.6,857.0 L404.6,858.7 L397.7,860.4 L390.8,862.0 L383.8,863.7 L375.8,865.6 L367.6,867.6 L360.7,869.2 L353.8,870.8 L346.8,872.4 L338.7,874.2 L330.6,876.0 L323.7,877.4 L316.8,878.8 L307.5,880.5 L300.6,881.7 L293.6,882.8 L284.4,884.2 L277.5,885.1 L268.2,886.1 L259.0,886.9 L252.0,887.4 L242.8,887.8 L233.5,887.9 L224.3,887.7 L215.0,887.2 L208.1,886.7 L198.8,885.6 L191.9,884.5 L183.1,882.8 L175.7,881.1 L168.8,879.2 L161.8,877.1 L154.9,874.7 L148.3,872.1 L143.3,869.9 L136.4,866.7 L130.2,863.5 L124.9,860.5 L119.1,857.0 L113.3,853.2 L108.7,850.0 L103.6,846.3 L98.2,842.0 L93.1,837.7 L88.3,833.4 L83.7,829.1 L79.4,824.8 L75.2,820.5 L71.3,816.2 L67.1,811.4 L62.4,805.8 L58.8,801.2 L55.5,796.9 L50.9,790.5 L47.8,786.2 L43.9,780.3 L40.8,775.4 L37.0,769.3 L34.3,764.7 L30.6,758.2 L27.7,753.0 L24.8,747.5 L21.5,741.1 L18.5,734.8 L16.2,729.9 L13.4,723.9 L10.6,717.4 L7.9,711.0 L5.3,704.5 L2.8,698.1 L0.3,691.6 Z" opacity=".18"/><path d="M1200.0,794.1 L1199.7,794.7 L1198.8,796.9 L1197.9,799.0 L1197.7,799.6 L1197.0,801.2 L1196.1,803.3 L1195.4,805.0 L1195.1,805.5 L1194.2,807.6 L1193.2,809.8 L1193.1,810.1 L1192.2,811.9 L1191.2,814.1 L1190.8,815.1 L1190.2,816.2 L1189.2,818.4 L1188.4,819.9 L1188.2,820.5 L1187.1,822.7 L1186.1,824.6 L1186.0,824.8 L1184.9,827.0 L1183.8,829.1 L1183.8,829.1 L1182.7,831.3 L1181.6,833.4 L1181.5,833.5 L1180.4,835.6 L1179.2,837.7 L1179.2,837.8 L1178.0,839.9 L1176.9,841.9 L1176.8,842.0 L1175.6,844.2 L1174.6,845.9 L1174.3,846.3 L1173.1,848.4 L1172.3,849.8 L1171.8,850.6 L1170.4,852.7 L1169.9,853.6 L1169.1,854.9 L1167.7,857.0 L1167.6,857.2 L1166.3,859.2 L1165.3,860.8 L1164.9,861.3 L1163.5,863.5 L1163.0,864.2 L1162.0,865.6 L1160.7,867.5 L1160.5,867.8 L1159.0,869.9 L1158.4,870.8 L1157.4,872.1 L1156.1,873.9 L1155.8,874.2 L1154.2,876.4 L1153.8,877.0 L1152.6,878.5 L1151.4,879.9 L1150.9,880.7 L1149.1,882.8 L1149.1,882.8 L1147.4,885.0 L1146.8,885.6 L1145.5,887.1 L1144.5,888.3 L1143.7,889.3 L1142.2,891.0 L1141.8,891.4 L1139.9,893.5 L1139.9,893.6 L1137.9,895.7 L1137.6,896.0 L1135.8,897.9 L1135.3,898.4 L1133.7,900.0 Z" opacity=".18"/><path d="M0.0,147.5 L0.6,146.1 L1.5,143.9 L2.3,142.1 L2.5,141.8 L3.4,139.6 L4.4,137.5 L4.6,137.0 L5.4,135.3 L6.4,133.2 L6.9,132.1 L7.4,131.0 L8.5,128.9 L9.2,127.3 L9.5,126.7 L10.6,124.6 L11.6,122.7 L11.7,122.4 L12.8,120.3 L13.9,118.3 L14.0,118.1 L15.1,116.0 L16.2,114.0 L16.3,113.8 L17.5,111.7 L18.5,109.9 L18.7,109.5 L19.9,107.4 L20.8,105.9 L21.2,105.3 L22.5,103.1 L23.1,102.0 L23.8,101.0 L25.1,98.8 L25.4,98.3 L26.5,96.7 L27.7,94.7 L27.9,94.5 L29.3,92.4 L30.1,91.2 L30.7,90.2 L32.2,88.1 L32.4,87.8 L33.7,85.9 L34.7,84.5 L35.2,83.8 L36.8,81.6 L37.0,81.4 L38.4,79.5 L39.3,78.3 L40.0,77.3 L41.6,75.3 L41.7,75.2 L43.4,73.0 L43.9,72.4 L45.2,70.9 L46.2,69.6 L47.0,68.7 L48.6,66.9 L48.8,66.6 L50.7,64.4 L50.9,64.2 L52.6,62.3 L53.2,61.7 L54.6,60.1 L55.5,59.2 L56.6,58.0 L57.8,56.8 L58.7,55.8 L60.1,54.4 L60.9,53.7 L62.4,52.2 L63.1,51.6 L64.7,50.0 L65.4,49.4 L67.1,47.8 L67.7,47.3 L69.4,45.8 L70.1,45.1 L71.7,43.8 L72.6,43.0 L74.0,41.8 L75.2,40.8 L76.3,40.0 L77.9,38.7 L78.6,38.1 L80.7,36.5 L80.9,36.4 L83.2,34.7 L83.6,34.4 L85.5,33.0 L86.7,32.2 L87.9,31.4 L89.8,30.1 L90.2,29.8 L92.5,28.3 L93.1,27.9 L94.8,26.9 L96.6,25.8 L97.1,25.5 L99.4,24.1 L100.3,23.6 L101.7,22.8 L104.0,21.5 L104.1,21.5 L106.4,20.3 L108.3,19.3 L108.7,19.1 L111.0,18.0 L112.7,17.2 L113.3,16.9 L115.6,15.8 L117.4,15.0 L117.9,14.8 L120.2,13.8 L122.5,12.9 L122.5,12.9 L124.9,12.0 L127.2,11.1 L128.2,10.7 L129.5,10.3 L131.8,9.5 L134.1,8.7 L134.5,8.6 L136.4,8.0 L138.7,7.3 L141.0,6.6 L141.7,6.4 L143.4,6.0 L145.7,5.4 L148.0,4.8 L150.3,4.3 L150.3,4.3 L152.6,3.8 L154.9,3.3 L157.2,2.9 L159.5,2.4 L161.2,2.1 L161.8,2.0 L164.2,1.7 L166.5,1.3 L168.8,1.0 L171.1,0.7 L173.4,0.5 L175.7,0.2 L178.0,0.0 Z" opacity=".18"/><path d="M221.9,0.0 L231.2,0.9 L241.7,2.1 L252.0,3.7 L261.3,5.3 L270.5,7.2 L279.8,9.1 L289.0,11.3 L298.3,13.6 L307.5,16.1 L316.8,18.6 L326.0,21.3 L333.9,23.6 L342.2,26.2 L351.4,29.0 L360.7,32.0 L368.2,34.4 L376.9,37.2 L386.1,40.2 L394.6,43.0 L402.3,45.5 L411.6,48.4 L420.8,51.4 L428.1,53.7 L437.0,56.5 L446.2,59.3 L455.5,62.0 L463.9,64.4 L471.7,66.6 L480.9,69.1 L490.2,71.5 L499.4,73.7 L508.7,75.8 L517.9,77.8 L527.2,79.6 L538.2,81.6 L548.0,83.2 L557.2,84.5 L568.8,85.9 L578.0,86.8 L589.6,87.8 L598.8,88.3 L610.4,88.7 L622.0,88.8 L633.5,88.7 L645.1,88.3 L654.3,87.8 L665.9,86.9 L676.0,85.9 L686.7,84.7 L696.0,83.5 L707.5,81.8 L716.8,80.3 L726.0,78.7 L735.3,77.0 L744.7,75.2 L755.2,73.0 L765.3,70.9 L774.6,68.8 L783.8,66.8 L793.1,64.7 L802.3,62.5 L811.6,60.4 L820.8,58.2 L830.1,56.1 L839.3,54.0 L848.6,52.0 L857.8,50.0 L867.1,48.0 L876.3,46.1 L885.5,44.4 L894.8,42.7 L906.4,40.8 L915.6,39.5 L924.9,38.2 L936.4,37.0 L945.7,36.2 L957.2,35.5 L968.8,35.1 L980.3,35.1 L991.9,35.6 L1003.1,36.5 L1012.7,37.7 L1022.0,39.1 L1031.2,41.0 L1040.5,43.3 L1049.7,46.0 L1059.0,49.1 L1065.9,51.8 L1075.1,55.8 L1082.1,59.3 L1089.0,63.1 L1096.0,67.2 L1102.9,71.7 L1109.8,76.6 L1116.3,81.6 L1121.5,85.9 L1128.3,92.0 L1133.2,96.7 L1139.5,103.1 L1144.5,108.5 L1149.1,113.9 L1154.4,120.3 L1159.3,126.7 L1164.0,133.2 L1168.4,139.6 L1172.6,146.1 L1176.9,153.0 L1181.5,161.0 L1185.1,167.5 L1188.5,174.0 L1192.8,182.6 L1195.8,189.0 L1199.7,197.6 Z" opacity=".18"/><path d="M121.5,900.0 L120.2,899.3 L117.9,897.9 L117.8,897.9 L115.6,896.5 L114.3,895.7 L113.3,895.1 L111.0,893.6 L110.9,893.6 L108.7,892.1 L107.6,891.4 L106.4,890.5 L104.5,889.3 L104.0,888.9 L101.7,887.3 L101.5,887.1 L99.4,885.6 L98.6,885.0 L97.1,883.8 L95.8,882.8 L94.8,882.0 L93.1,880.7 L92.5,880.2 L90.4,878.5 L90.2,878.3 L87.9,876.4 L87.9,876.4 L85.5,874.4 L85.4,874.2 L83.2,872.3 L83.0,872.1 L80.9,870.2 L80.6,869.9 L78.6,868.1 L78.3,867.8 L76.3,865.8 L76.1,865.6 L74.0,863.6 L73.9,863.5 L71.8,861.3 L71.7,861.2 L69.7,859.2 L69.4,858.9 L67.6,857.0 L67.1,856.4 L65.7,854.9 L64.7,853.9 L63.7,852.7 L62.4,851.3 L61.8,850.6 L60.1,848.7 L59.9,848.4 L58.1,846.3 L57.8,846.0 L56.3,844.2 L55.5,843.2 L54.5,842.0 L53.2,840.3 L52.8,839.9 L51.1,837.7 L50.9,837.4 L49.4,835.6 L48.6,834.4 L47.8,833.4 L46.2,831.4 L46.2,831.3 L44.6,829.1 L43.9,828.2 L43.0,827.0 L41.6,825.0 L41.5,824.8 L40.0,822.7 L39.3,821.7 L38.5,820.5 L37.1,818.4 L37.0,818.3 L35.6,816.2 L34.7,814.8 L34.2,814.1 L32.8,811.9 L32.4,811.2 L31.5,809.8 L30.1,807.6 L30.1,807.5 L28.8,805.5 L27.7,803.8 L27.5,803.3 L26.2,801.2 L25.4,799.9 L24.9,799.0 L23.7,796.9 L23.1,795.9 L22.4,794.7 L21.2,792.6 L20.8,791.9 L20.0,790.5 L18.8,788.3 L18.5,787.7 L17.7,786.2 L16.5,784.0 L16.2,783.4 L15.4,781.9 L14.2,779.7 L13.9,779.0 L13.1,777.6 L12.0,775.4 L11.6,774.5 L11.0,773.3 L9.9,771.1 L9.2,769.8 L8.8,769.0 L7.8,766.8 L6.9,765.0 L6.8,764.7 L5.8,762.5 L4.8,760.4 L4.6,760.1 L3.8,758.2 L2.8,756.1 L2.3,755.0 L1.8,753.9 L0.9,751.8 L0.0,749.8 Z" opacity=".16"/><path d="M692.3,900.0 L691.3,899.7 L689.0,899.1 L686.7,898.5 L684.4,897.9 L684.1,897.9 L682.1,897.3 L679.8,896.8 L677.5,896.2 L675.4,895.7 L675.1,895.6 L672.8,895.1 L670.5,894.5 L668.2,894.0 L666.1,893.6 L665.9,893.5 L663.6,893.0 L661.3,892.5 L659.0,892.0 L656.6,891.5 L656.0,891.4 L654.3,891.1 L652.0,890.6 L649.7,890.2 L647.4,889.8 L645.1,889.3 L644.7,889.3 L642.8,888.9 L640.5,888.5 L638.2,888.1 L635.8,887.8 L633.5,887.4 L631.7,887.1 L631.2,887.0 L628.9,886.7 L626.6,886.4 L624.3,886.0 L622.0,885.7 L619.7,885.4 L617.3,885.1 L615.8,885.0 L615.0,884.9 L612.7,884.6 L610.4,884.4 L608.1,884.1 L605.8,883.9 L603.5,883.7 L601.2,883.5 L598.8,883.3 L596.5,883.1 L594.2,882.9 L592.6,882.8 L591.9,882.8 L589.6,882.6 L587.3,882.5 L585.0,882.4 L582.7,882.2 L580.3,882.1 L578.0,882.1 L575.7,882.0 L573.4,881.9 L571.1,881.9 L568.8,881.8 L566.5,881.8 L564.2,881.8 L561.8,881.7 L559.5,881.8 L557.2,881.8 L554.9,881.8 L552.6,881.8 L550.3,881.9 L548.0,881.9 L545.7,882.0 L543.4,882.1 L541.0,882.2 L538.7,882.3 L536.4,882.4 L534.1,882.5 L531.8,882.6 L529.5,882.8 L528.5,882.8 L527.2,882.9 L524.9,883.1 L522.5,883.2 L520.2,883.4 L517.9,883.6 L515.6,883.8 L513.3,884.0 L511.0,884.2 L508.7,884.5 L506.4,884.7 L504.0,884.9 L503.8,885.0 L501.7,885.2 L499.4,885.5 L497.1,885.7 L494.8,886.0 L492.5,886.3 L490.2,886.6 L487.9,886.9 L486.3,887.1 L485.5,887.2 L483.2,887.5 L480.9,887.9 L478.6,888.2 L476.3,888.5 L474.0,888.9 L471.7,889.3 L471.7,889.3 L469.4,889.6 L467.1,890.0 L464.7,890.4 L462.4,890.8 L460.1,891.2 L458.6,891.4 L457.8,891.5 L455.5,892.0 L453.2,892.4 L450.9,892.8 L448.6,893.2 L446.6,893.6 L446.2,893.6 L443.9,894.1 L441.6,894.5 L439.3,894.9 L437.0,895.4 L435.3,895.7 L434.7,895.8 L432.4,896.3 L430.1,896.7 L427.7,897.2 L425.4,897.7 L424.5,897.9 L423.1,898.1 L420.8,898.6 L418.5,899.1 L416.2,899.6 L414.1,900.0 Z" opacity=".16"/><path d="M1200.0,851.3 L1199.3,852.7 L1198.2,854.9 L1197.7,856.0 L1197.2,857.0 L1196.1,859.2 L1195.4,860.6 L1195.0,861.3 L1193.9,863.5 L1193.1,865.0 L1192.7,865.6 L1191.6,867.8 L1190.8,869.3 L1190.4,869.9 L1189.2,872.1 L1188.4,873.5 L1188.1,874.2 L1186.8,876.4 L1186.1,877.6 L1185.6,878.5 L1184.3,880.7 L1183.8,881.6 L1183.1,882.8 L1181.8,885.0 L1181.5,885.4 L1180.5,887.1 L1179.2,889.2 L1179.1,889.3 L1177.8,891.4 L1176.9,892.8 L1176.4,893.6 L1175.0,895.7 L1174.6,896.3 L1173.6,897.9 L1172.3,899.8 L1172.1,900.0 Z" opacity=".16"/><path d="M0.0,94.3 L1.0,92.4 L2.2,90.2 L2.3,90.0 L3.3,88.1 L4.5,85.9 L4.6,85.7 L5.7,83.8 L6.9,81.6 L6.9,81.6 L8.2,79.5 L9.2,77.7 L9.4,77.3 L10.7,75.2 L11.6,73.8 L12.0,73.0 L13.4,70.9 L13.9,70.1 L14.7,68.7 L16.1,66.6 L16.2,66.5 L17.5,64.4 L18.5,62.9 L18.9,62.3 L20.4,60.1 L20.8,59.5 L21.9,58.0 L23.1,56.2 L23.4,55.8 L24.9,53.7 L25.4,53.0 L26.5,51.6 L27.7,49.9 L28.1,49.4 L29.8,47.3 L30.1,46.9 L31.5,45.1 L32.4,44.0 L33.2,43.0 L34.7,41.1 L34.9,40.8 L36.7,38.7 L37.0,38.3 L38.6,36.5 L39.3,35.6 L40.4,34.4 L41.6,33.0 L42.4,32.2 L43.9,30.5 L44.3,30.1 L46.2,28.0 L46.3,27.9 L48.4,25.8 L48.6,25.6 L50.5,23.6 L50.9,23.3 L52.7,21.5 L53.2,21.0 L55.0,19.3 L55.5,18.9 L57.3,17.2 L57.8,16.7 L59.7,15.0 L60.1,14.7 L62.1,12.9 L62.4,12.6 L64.7,10.7 L64.7,10.7 L67.1,8.8 L67.3,8.6 L69.4,7.0 L70.0,6.4 L71.7,5.2 L72.8,4.3 L74.0,3.4 L75.8,2.1 L76.3,1.8 L78.6,0.1 L78.8,0.0 Z" opacity=".16"/><path d="M374.5,0.0 L381.5,2.1 L388.4,4.2 L395.4,6.3 L402.3,8.3 L409.2,10.4 L416.2,12.5 L423.1,14.5 L430.1,16.5 L437.0,18.5 L443.9,20.4 L450.9,22.3 L457.8,24.2 L464.7,26.0 L472.3,27.9 L480.9,30.0 L487.9,31.7 L494.8,33.3 L501.7,34.8 L510.1,36.5 L517.9,38.0 L524.9,39.3 L533.5,40.8 L541.0,42.0 L548.0,43.0 L557.2,44.3 L564.5,45.1 L573.4,46.0 L582.7,46.8 L589.6,47.3 L598.8,47.9 L608.1,48.2 L617.3,48.4 L626.6,48.5 L635.8,48.4 L645.1,48.1 L654.3,47.7 L661.9,47.3 L670.5,46.6 L679.8,45.8 L687.1,45.1 L696.0,44.1 L705.2,43.0 L712.1,42.0 L720.6,40.8 L728.3,39.6 L735.3,38.5 L744.5,36.9 L751.4,35.7 L758.7,34.4 L767.6,32.7 L774.6,31.3 L781.5,30.0 L790.8,28.1 L797.7,26.7 L804.6,25.3 L812.6,23.6 L820.8,21.9 L827.7,20.5 L834.7,19.1 L843.9,17.3 L850.9,15.9 L857.8,14.5 L866.7,12.9 L874.0,11.6 L880.9,10.4 L890.2,8.8 L897.1,7.7 L906.0,6.4 L913.3,5.5 L922.5,4.4 L929.5,3.6 L938.7,2.8 L947.7,2.1 L954.9,1.8 L964.2,1.5 L973.4,1.4 L982.7,1.5 L991.9,2.0 L998.8,2.4 L1008.1,3.4 L1015.3,4.3 L1024.3,5.7 L1031.2,7.1 L1038.2,8.6 L1046.3,10.7 L1053.6,12.9 L1060.0,15.0 L1065.9,17.2 L1072.8,19.9 L1079.8,23.0 L1085.5,25.8 L1091.3,28.8 L1097.4,32.2 L1102.9,35.5 L1107.8,38.7 L1114.0,43.0 L1119.1,46.7 L1123.7,50.3 L1128.3,54.1 L1132.9,58.0 L1137.6,62.3 L1142.2,66.7 L1146.8,71.4 L1151.4,76.3 L1156.1,81.5 L1159.8,85.9 L1163.3,90.2 L1167.6,95.7 L1171.5,101.0 L1174.6,105.3 L1179.0,111.7 L1181.8,116.0 L1185.9,122.4 L1188.5,126.7 L1192.2,133.2 L1195.4,138.9 L1198.1,143.9 Z" opacity=".16"/></g><path stroke="#A34E21" stroke-dasharray=".5 8.5" stroke-linecap="round" stroke-width="1.8" d="M212.9,450.0 L217.8,451.7 L222.6,453.3 L227.5,455.0 L232.4,456.6 L237.2,458.2 L242.1,459.9 L247.0,461.5 L251.9,463.0 L256.7,464.6 L261.6,466.1 L266.5,467.7 L271.3,469.2 L276.2,470.6 L281.1,472.0 L285.9,473.4 L290.8,474.8 L295.7,476.1 L300.5,477.4 L305.4,478.6 L310.3,479.8 L315.2,481.0 L320.0,482.0 L324.9,483.1 L329.8,484.1 L334.6,485.0 L339.5,485.9 L344.4,486.7 L349.2,487.5 L354.1,488.2 L359.0,488.9 L363.8,489.5 L368.7,490.0 L373.6,490.5 L378.5,490.9 L383.3,491.2 L388.2,491.5 L393.1,491.7 L397.9,491.8 L402.8,491.9 L407.7,491.9 L412.5,491.9 L417.4,491.8 L422.3,491.6 L427.1,491.4 L432.0,491.0 L436.9,490.7 L441.8,490.2 L446.6,489.7 L451.5,489.2 L456.4,488.6 L461.2,487.9 L466.1,487.1 L471.0,486.3 L475.8,485.5 L480.7,484.6 L485.6,483.6 L490.4,482.6 L495.3,481.5 L500.2,480.4 L505.1,479.2 L509.9,478.0 L514.8,476.8 L519.7,475.5 L524.5,474.1 L529.4,472.7 L534.3,471.3 L539.1,469.9 L544.0,468.4 L548.9,466.9 L553.7,465.4 L558.6,463.8 L563.5,462.3 L568.4,460.7 L573.2,459.0 L578.1,457.4 L583.0,455.8 L587.8,454.1 L592.7,452.5 L597.6,450.8 L602.4,449.2 L607.3,447.5 L612.2,445.9 L617.0,444.2 L621.9,442.6 L626.8,441.0 L631.6,439.3 L636.5,437.7 L641.4,436.2 L646.3,434.6 L651.1,433.1 L656.0,431.6 L660.9,430.1 L665.7,428.7 L670.6,427.3 L675.5,425.9 L680.3,424.5 L685.2,423.2 L690.1,422.0 L694.9,420.8 L699.8,419.6 L704.7,418.5 L709.6,417.4 L714.4,416.4 L719.3,415.4 L724.2,414.5 L729.0,413.7 L733.9,412.9 L738.8,412.1 L743.6,411.4 L748.5,410.8 L753.4,410.3 L758.2,409.8 L763.1,409.3 L768.0,409.0 L772.9,408.6 L777.7,408.4 L782.6,408.2 L787.5,408.1 L792.3,408.1 L797.2,408.1 L802.1,408.2 L806.9,408.3 L811.8,408.5 L816.7,408.8 L821.5,409.1 L826.4,409.5 L831.3,410.0 L836.2,410.5 L841.0,411.1 L845.9,411.8 L850.8,412.5 L855.6,413.3 L860.5,414.1 L865.4,415.0 L870.2,415.9 L875.1,416.9 L880.0,418.0 L884.8,419.0 L889.7,420.2 L894.6,421.4 L899.5,422.6 L904.3,423.9 L909.2,425.2 L914.1,426.6 L918.9,428.0 L923.8,429.4 L928.7,430.8 L933.5,432.3 L938.4,433.9 L943.3,435.4 L948.1,437.0 L953.0,438.5 L957.9,440.1 L962.8,441.8 L967.6,443.4 L972.5,445.0 L977.4,446.7 L982.2,448.3 L987.1,450.0" class="migration-path"/><circle cx="600" cy="450" r="4.5" fill="#A34E21" class="saddle-node"/></svg>